<?xml version="1.0" standalone="no"?>
<!DOCTYPE svg PUBLIC "-//W3C//DTD SVG 20010904//EN"
 "http://www.w3.org/TR/2001/REC-SVG-20010904/DTD/svg10.dtd">
<svg version="1.0" xmlns="http://www.w3.org/2000/svg"
 width="574.000000pt" height="574.000000pt" viewBox="0 0 574.000000 574.000000"
 preserveAspectRatio="xMidYMid meet">
<metadata>
Created by potrace 1.14, written by Peter Selinger 2001-2017
</metadata>
<g transform="translate(0.000000,574.000000) scale(0.100000,-0.100000)"
fill="#000000" stroke="none">
<path d="M2659 5636 c-2 -2 -40 -6 -84 -10 -103 -8 -243 -31 -375 -61 -889
-205 -1632 -819 -1984 -1638 -146 -340 -215 -686 -214 -1067 1 -320 44 -580
141 -865 256 -752 842 -1370 1594 -1681 163 -68 357 -124 563 -162 218 -41
351 -51 640 -47 282 4 430 21 650 74 307 74 612 207 880 382 287 187 517 401
719 669 296 392 466 811 537 1320 10 77 13 501 3 585 -79 691 -376 1274 -891
1752 -349 323 -838 577 -1313 682 -226 50 -394 68 -646 69 -119 1 -218 0 -220
-2z"/>
</g>
</svg>
